<svg width="30" height="30" viewBox="0 0 30 30" fill="none" xmlns="http://www.w3.org/2000/svg">
<path d="M27.9028 15.877L24.7613 11.0484C24.636 10.855 24.4642 10.6961 24.2616 10.5862C24.059 10.4764 23.832 10.4192 23.6016 10.4198H19.2314V6.78279C19.231 6.41666 19.0854 6.06563 18.8265 5.80673C18.5676 5.54784 18.2166 5.40223 17.8505 5.40186H3.25594C2.88972 5.40223 2.53862 5.5479 2.27971 5.8069C2.0208 6.0659 1.87525 6.41705 1.875 6.78326V19.5534C1.87537 19.9196 2.02098 20.2706 2.27988 20.5295C2.53877 20.7884 2.8898 20.934 3.25594 20.9344H3.85875C3.63517 21.5651 3.64951 22.2557 3.89909 22.8766C4.14867 23.4975 4.61632 24.0059 5.21423 24.3065C5.81214 24.607 6.49918 24.6789 7.14635 24.5087C7.79353 24.3385 8.35632 23.9379 8.72906 23.3822C10.5281 26.0095 14.6381 23.9784 13.5994 20.9344H20.6198C20.4733 21.3487 20.4283 21.7921 20.4886 22.2275C20.5489 22.6628 20.7128 23.0773 20.9665 23.4362C21.2202 23.795 21.5563 24.0878 21.9466 24.2898C22.3369 24.4919 22.77 24.5973 23.2095 24.5973C23.6489 24.5973 24.082 24.4919 24.4723 24.2898C24.8626 24.0878 25.1987 23.795 25.4524 23.4362C25.7061 23.0773 25.87 22.6628 25.9303 22.2275C25.9907 21.7921 25.9456 21.3487 25.7991 20.9344H26.7441C27.1102 20.934 27.4612 20.7884 27.7201 20.5295C27.979 20.2706 28.1246 19.9196 28.125 19.5534V16.6303C28.1246 16.3631 28.0475 16.1017 27.9028 15.877ZM26.97 16.162L21.9094 16.1583V13.6359H25.3266L26.97 16.162ZM3.25594 6.33982H17.85C17.9676 6.33995 18.0803 6.38671 18.1634 6.46984C18.2466 6.55297 18.2933 6.66569 18.2934 6.78326V17.1004H2.8125V6.78326C2.81262 6.66569 2.85938 6.55297 2.94252 6.46984C3.02565 6.38671 3.13837 6.33995 3.25594 6.33982ZM6.44812 23.6601C5.96763 23.6601 5.50681 23.4693 5.16705 23.1295C4.82728 22.7897 4.63641 22.3289 4.63641 21.8484C4.63641 21.3679 4.82728 20.9071 5.16705 20.5673C5.50681 20.2276 5.96763 20.0367 6.44812 20.0367C6.92862 20.0367 7.38944 20.2276 7.7292 20.5673C8.06897 20.9071 8.25984 21.3679 8.25984 21.8484C8.25984 22.3289 8.06897 22.7897 7.7292 23.1295C7.38944 23.4693 6.92862 23.6601 6.44812 23.6601ZM11.0091 23.6601C10.5286 23.6601 10.0677 23.4693 9.72798 23.1295C9.38822 22.7897 9.19734 22.3289 9.19734 21.8484C9.19734 21.3679 9.38822 20.9071 9.72798 20.5673C10.0677 20.2276 10.5286 20.0367 11.0091 20.0367C11.4896 20.0367 11.9504 20.2276 12.2901 20.5673C12.6299 20.9071 12.8208 21.3679 12.8208 21.8484C12.8208 22.3289 12.6299 22.7897 12.2901 23.1295C11.9504 23.4693 11.4896 23.6601 11.0091 23.6601ZM11.0091 19.0992C10.5585 19.0994 10.1149 19.2103 9.71732 19.4223C9.31973 19.6342 8.98035 19.9407 8.72906 20.3147C8.49381 19.9736 8.18508 19.6896 7.82558 19.4836C7.46607 19.2776 7.06495 19.1548 6.65173 19.1243C6.23852 19.0939 5.82372 19.1564 5.43788 19.3074C5.05203 19.4584 4.70495 19.694 4.42219 19.9969H3.25594C3.13837 19.9967 3.02565 19.95 2.94252 19.8668C2.85938 19.7837 2.81262 19.671 2.8125 19.5534V18.0375H18.2939V19.9969H13.0355C12.7789 19.7143 12.4661 19.4884 12.1171 19.3337C11.7682 19.1791 11.3908 19.0995 11.0091 19.0992ZM23.2097 23.6601C22.7292 23.6601 22.2684 23.4693 21.9286 23.1295C21.5888 22.7897 21.398 22.3289 21.398 21.8484C21.398 21.3679 21.5888 20.9071 21.9286 20.5673C22.2684 20.2276 22.7292 20.0367 23.2097 20.0367C23.6902 20.0367 24.151 20.2276 24.4908 20.5673C24.8305 20.9071 25.0214 21.3679 25.0214 21.8484C25.0214 22.3289 24.8305 22.7897 24.4908 23.1295C24.151 23.4693 23.6902 23.6601 23.2097 23.6601ZM26.7441 19.9969H25.2356C24.9768 19.7182 24.6632 19.496 24.3146 19.344C23.966 19.192 23.5898 19.1136 23.2095 19.1136C22.8291 19.1136 22.4529 19.192 22.1043 19.344C21.7557 19.496 21.4421 19.7182 21.1833 19.9969H19.2314V11.3569H23.6016C23.6756 11.3566 23.7486 11.3749 23.8138 11.4101C23.879 11.4454 23.9343 11.4963 23.9747 11.5584L24.7167 12.6984H21.8953C21.6606 12.6893 21.4317 12.7733 21.2587 12.9323C21.0857 13.0912 20.9826 13.3122 20.9719 13.5469V16.2515C20.9826 16.4862 21.0857 16.7072 21.2587 16.8661C21.4317 17.0251 21.6606 17.1091 21.8953 17.1H27.1875V19.5534C27.1874 19.671 27.1406 19.7837 27.0575 19.8668C26.9743 19.95 26.8616 19.9967 26.7441 19.9969Z" fill="#00BBE0"/>
<path d="M4.62046 10.6627H7.38234C7.50666 10.6627 7.62589 10.6133 7.71379 10.5254C7.8017 10.4375 7.85109 10.3183 7.85109 10.194C7.85109 10.0696 7.8017 9.95042 7.71379 9.86251C7.62589 9.7746 7.50666 9.72521 7.38234 9.72521H4.62C4.49567 9.72521 4.37645 9.7746 4.28854 9.86251C4.20063 9.95042 4.15125 10.0696 4.15125 10.194C4.15125 10.3183 4.20063 10.4375 4.28854 10.5254C4.37645 10.6133 4.49567 10.6627 4.62 10.6627H4.62046ZM6.46781 8.73193H9.22921C9.35353 8.73193 9.47276 8.68255 9.56067 8.59464C9.64858 8.50673 9.69796 8.3875 9.69796 8.26318C9.69796 8.13886 9.64858 8.01963 9.56067 7.93173C9.47276 7.84382 9.35353 7.79443 9.22921 7.79443H6.46781C6.34349 7.79443 6.22426 7.84382 6.13635 7.93173C6.04844 8.01963 5.99906 8.13886 5.99906 8.26318C5.99906 8.3875 6.04844 8.50673 6.13635 8.59464C6.22426 8.68255 6.34349 8.73193 6.46781 8.73193ZM11.0095 21.3797C10.8852 21.3797 10.766 21.4291 10.6781 21.517C10.5902 21.6049 10.5408 21.7242 10.5408 21.8485C10.5408 21.9728 10.5902 22.092 10.6781 22.18C10.766 22.2679 10.8852 22.3172 11.0095 22.3172C11.1338 22.3172 11.2531 22.2679 11.341 22.18C11.4289 22.092 11.4783 21.9728 11.4783 21.8485C11.4783 21.7242 11.4289 21.6049 11.341 21.517C11.2531 21.4291 11.1338 21.3797 11.0095 21.3797ZM23.2092 21.3797C23.0849 21.3797 22.9657 21.4291 22.8778 21.517C22.7899 21.6049 22.7405 21.7242 22.7405 21.8485C22.7405 21.9728 22.7899 22.092 22.8778 22.18C22.9657 22.2679 23.0849 22.3172 23.2092 22.3172C23.3335 22.3172 23.4528 22.2679 23.5407 22.18C23.6286 22.092 23.678 21.9728 23.678 21.8485C23.678 21.7242 23.6286 21.6049 23.5407 21.517C23.4528 21.4291 23.3335 21.3797 23.2092 21.3797ZM6.44859 21.3797C6.32427 21.3797 6.20504 21.4291 6.11713 21.517C6.02922 21.6049 5.97984 21.7242 5.97984 21.8485C5.97984 21.9728 6.02922 22.092 6.11713 22.18C6.20504 22.2679 6.32427 22.3172 6.44859 22.3172C6.57291 22.3172 6.69214 22.2679 6.78005 22.18C6.86795 22.092 6.91734 21.9728 6.91734 21.8485C6.91734 21.7242 6.86795 21.6049 6.78005 21.517C6.69214 21.4291 6.57291 21.3797 6.44859 21.3797Z" fill="#00BBE0"/>
</svg>
