<svg width="30" height="30" viewBox="0 0 30 30" fill="none" xmlns="http://www.w3.org/2000/svg">
<g clip-path="url(#clip0_119_1018)">
<path d="M29.5 5H17.5C17.3674 5 17.2402 5.05268 17.1464 5.14645C17.0527 5.24021 17 5.36739 17 5.5V10C17.0001 10.0792 17.0189 10.1572 17.055 10.2277C17.0912 10.2982 17.1435 10.359 17.2078 10.4053C17.272 10.4516 17.3463 10.482 17.4246 10.4939C17.5029 10.5058 17.5829 10.499 17.658 10.474L18.2865 10.2645C18.9689 10.0411 19.7031 10.4133 19.9264 11.0956C20.1497 11.778 19.7776 12.5122 19.0952 12.7355C18.8325 12.8215 18.5492 12.8215 18.2864 12.7355L17.6579 12.526C17.5828 12.501 17.5028 12.4942 17.4245 12.5061C17.3463 12.518 17.2719 12.5484 17.2077 12.5947C17.1434 12.641 17.0911 12.7018 17.055 12.7723C17.0189 12.8428 17 12.9208 16.9999 13V17H12.9999C12.9208 17.0001 12.8427 17.0189 12.7723 17.055C12.7018 17.0912 12.6409 17.1435 12.5946 17.2078C12.5483 17.272 12.518 17.3463 12.506 17.4246C12.4941 17.5029 12.5009 17.5829 12.5259 17.658L12.7354 18.2865C12.9588 18.9689 12.5867 19.7031 11.9043 19.9264C11.2219 20.1498 10.4878 19.7776 10.2644 19.0953C10.1784 18.8325 10.1784 18.5492 10.2644 18.2864L10.4739 17.6579C10.499 17.5828 10.5058 17.5028 10.4938 17.4245C10.4819 17.3463 10.4515 17.2719 10.4053 17.2077C10.359 17.1434 10.2981 17.0911 10.2276 17.055C10.1572 17.0189 10.0791 17 9.99994 16.9999H5.5C5.36739 16.9999 5.24021 17.0526 5.14645 17.1464C5.05268 17.2402 5 17.3673 5 17.4999V29.4999C5 29.6325 5.05268 29.7597 5.14645 29.8535C5.24021 29.9473 5.36739 29.9999 5.5 29.9999H29.5C29.6326 29.9999 29.7598 29.9473 29.8536 29.8535C29.9473 29.7597 30 29.6325 30 29.4999V5.5C30 5.36739 29.9473 5.24021 29.8536 5.14645C29.7598 5.05268 29.6326 5 29.5 5ZM17.0256 24.8424C17.0087 24.8932 17 24.9464 17 25V29H6V18H9.3065C8.92444 19.2114 9.59681 20.5033 10.8083 20.8853C12.0197 21.2673 13.3115 20.5949 13.6935 19.3835C13.8355 18.9332 13.8355 18.4502 13.6935 17.9999H17V21.9999C17.0001 22.0791 17.0189 22.1572 17.055 22.2276C17.0912 22.2981 17.1435 22.359 17.2078 22.4053C17.272 22.4515 17.3463 22.4819 17.4246 22.4938C17.5029 22.5058 17.5829 22.499 17.658 22.4739L18.2865 22.2644C18.9689 22.0411 19.7031 22.4132 19.9264 23.0956C20.1497 23.7779 19.7776 24.5121 19.0952 24.7354C18.8325 24.8214 18.5492 24.8214 18.2864 24.7354L17.6579 24.5259C17.5321 24.4841 17.3948 24.4939 17.2762 24.5532C17.1577 24.6126 17.0675 24.7166 17.0256 24.8424ZM29 29H18V25.6935C19.2114 26.0756 20.5033 25.4032 20.8853 24.1918C21.2673 22.9803 20.5949 21.6885 19.3835 21.3065C18.9332 21.1645 18.4502 21.1645 17.9999 21.3065V18H21.9999C22.0791 17.9999 22.1572 17.9811 22.2276 17.945C22.2981 17.9088 22.359 17.8565 22.4053 17.7923C22.4515 17.728 22.4819 17.6537 22.4938 17.5754C22.5058 17.4971 22.499 17.4171 22.4739 17.342L22.2644 16.7135C22.0411 16.0311 22.4132 15.2969 23.0956 15.0736C23.7779 14.8503 24.5121 15.2224 24.7354 15.9048C24.8214 16.1675 24.8214 16.4508 24.7354 16.7136L24.5259 17.3421C24.5009 17.4172 24.4941 17.4972 24.506 17.5755C24.518 17.6537 24.5483 17.7281 24.5946 17.7923C24.6409 17.8566 24.7018 17.9089 24.7722 17.945C24.8427 17.9811 24.9208 18 24.9999 18.0001H28.9999V29H29ZM29 17H25.6935C26.0756 15.7886 25.4032 14.4968 24.1917 14.1148C22.9803 13.7327 21.6885 14.4051 21.3065 15.6165C21.1645 16.0668 21.1645 16.5498 21.3065 17.0001H18V13.6936C18.3423 13.8045 18.7061 13.8328 19.0615 13.776C19.4169 13.7193 19.7537 13.5791 20.0445 13.3671C21.0786 12.6294 21.319 11.1931 20.5814 10.159C19.9989 9.34238 18.9543 8.99744 18 9.30656V6H29V17Z" fill="#F30008"/>
<path d="M14.3836 4.3065C13.9333 4.1645 13.4503 4.1645 13 4.3065V0.5C13 0.367392 12.9473 0.240215 12.8536 0.146447C12.7598 0.0526784 12.6326 0 12.5 0L0.5 0C0.367392 0 0.240215 0.0526784 0.146447 0.146447C0.0526784 0.240215 0 0.367392 0 0.5L0 12.5C0 12.6326 0.0526784 12.7598 0.146447 12.8536C0.240215 12.9473 0.367392 13 0.5 13H4.3065C3.92444 14.2114 4.59681 15.5033 5.80825 15.8853C7.01969 16.2673 8.3115 15.5949 8.6935 14.3835C8.8355 13.9332 8.8355 13.4502 8.6935 12.9999H12.5C12.6326 12.9999 12.7598 12.9473 12.8536 12.8535C12.9473 12.7597 13 12.6325 13 12.4999V8.69344C14.2114 9.0755 15.5033 8.40313 15.8853 7.19169C16.2673 5.98031 15.595 4.68856 14.3836 4.3065ZM14.0953 7.7355C13.8326 7.8215 13.5492 7.8215 13.2865 7.7355L12.658 7.526C12.5829 7.50098 12.5029 7.49416 12.4246 7.5061C12.3463 7.51804 12.272 7.5484 12.2078 7.59468C12.1435 7.64097 12.0912 7.70185 12.055 7.77231C12.0189 7.84278 12.0001 7.92082 12 8V12H8C7.92082 12.0001 7.84278 12.0189 7.77231 12.055C7.70185 12.0912 7.64097 12.1435 7.59468 12.2078C7.5484 12.272 7.51804 12.3463 7.5061 12.4246C7.49416 12.5029 7.50098 12.5829 7.526 12.658L7.7355 13.2865C7.95888 13.9689 7.58675 14.7031 6.90438 14.9264C6.222 15.1497 5.48781 14.7776 5.2645 14.0953C5.1785 13.8325 5.1785 13.5492 5.2645 13.2864L5.474 12.6579C5.49902 12.5828 5.50584 12.5028 5.4939 12.4245C5.48196 12.3463 5.4516 12.2719 5.40532 12.2077C5.35904 12.1434 5.29815 12.0911 5.22769 12.055C5.15722 12.0189 5.07918 12 5 11.9999H1V1H12V5C12.0001 5.07918 12.0189 5.15722 12.055 5.22769C12.0912 5.29815 12.1435 5.35903 12.2078 5.40532C12.272 5.4516 12.3463 5.48196 12.4246 5.4939C12.5029 5.50584 12.5829 5.49902 12.658 5.474L13.2865 5.2645C13.9689 5.04119 14.7031 5.41325 14.9264 6.09562C15.1498 6.77794 14.7776 7.51219 14.0953 7.7355Z" fill="#F30008"/>
</g>
<defs>
<clipPath id="clip0_119_1018">
<rect width="30" height="30" fill="white"/>
</clipPath>
</defs>
</svg>
