<svg width="30" height="30" viewBox="0 0 30 30" fill="none" xmlns="http://www.w3.org/2000/svg">
<g clip-path="url(#clip0_119_1026)">
<path d="M16.9165 1.30273C16.7688 0.91473 16.5053 0.581589 16.1617 0.348562C15.8181 0.115536 15.4111 -0.00608041 14.996 0.000234C14.5833 -0.00600431 14.1788 0.114934 13.8372 0.346619C13.4957 0.578305 13.2338 0.909507 13.087 1.29523C11.7737 4.67678 10.0821 7.89893 8.0445 10.9002C5.8275 14.3672 4.077 17.1052 4.591 21.0822C4.8829 23.1186 5.77292 25.0224 7.14821 26.5524C8.5235 28.0823 10.3221 29.1693 12.316 29.6757C13.1915 29.8884 14.0891 29.9963 14.99 29.9972C17.3764 30.0072 19.6964 29.2117 21.5745 27.7392C22.7974 26.7873 23.7867 25.5686 24.467 24.1762C25.1473 22.7838 25.5006 21.2544 25.5 19.7047C25.5 16.4437 23.936 14.0002 21.9555 10.9002C19.9198 7.901 18.2294 4.68142 16.9165 1.30273ZM20.9565 26.9527C19.7808 27.8645 18.4126 28.496 16.956 28.7993C15.4994 29.1025 13.9929 29.0695 12.551 28.7027C11.1612 28.3484 9.87087 27.6807 8.77889 26.7508C7.68691 25.8208 6.82221 24.6534 6.251 23.3377C6.301 23.3677 6.354 23.3972 6.407 23.4287C6.973 23.8145 7.64517 24.0143 8.33 24.0002C9.01632 24.0145 9.69003 23.8145 10.2575 23.4282C10.6681 23.1372 11.1619 22.987 11.665 23.0002C12.1681 22.987 12.6619 23.1372 13.0725 23.4282C13.6452 23.8013 14.314 24 14.9975 24C15.681 24 16.3498 23.8013 16.9225 23.4282C17.3397 23.1487 17.8306 22.9994 18.3327 22.9994C18.8349 22.9994 19.3258 23.1487 19.743 23.4282C20.3159 23.8007 20.9846 23.999 21.668 23.999C22.3514 23.999 23.0201 23.8007 23.593 23.4282C23.647 23.3962 23.699 23.3662 23.7515 23.3362C23.1358 24.756 22.175 25.9988 20.9565 26.9527ZM24.1805 22.1002C23.7901 22.1969 23.4184 22.3576 23.0805 22.5757C22.6668 22.8662 22.1703 23.0151 21.665 23.0002C21.606 23.0002 21.5535 22.9972 21.5 22.9942V17.0002C21.5 16.8676 21.4473 16.7404 21.3535 16.6467C21.2598 16.5529 21.1326 16.5002 21 16.5002C20.8674 16.5002 20.7402 16.5529 20.6464 16.6467C20.5527 16.7404 20.5 16.8676 20.5 17.0002V22.7127C20.42 22.6687 20.3405 22.6217 20.2575 22.5722C19.737 22.2212 19.1276 22.0251 18.5 22.0067V19.0002C18.5 18.8676 18.4473 18.7404 18.3535 18.6467C18.2598 18.5529 18.1326 18.5002 18 18.5002C17.8674 18.5002 17.7402 18.5529 17.6464 18.6467C17.5527 18.7404 17.5 18.8676 17.5 19.0002V22.0912C17.1116 22.1895 16.7424 22.3519 16.4075 22.5717C16.1333 22.759 15.825 22.8903 15.5 22.9582V18.5002C15.5 18.3676 15.4473 18.2404 15.3535 18.1467C15.2598 18.0529 15.1326 18.0002 15 18.0002C14.8674 18.0002 14.7402 18.0529 14.6464 18.1467C14.5527 18.2404 14.5 18.3676 14.5 18.5002V22.9582C14.1731 22.8909 13.8627 22.7593 13.587 22.5712C13.2536 22.3528 12.8863 22.1911 12.5 22.0927V19.5002C12.5 19.3676 12.4473 19.2404 12.3536 19.1467C12.2598 19.0529 12.1326 19.0002 12 19.0002C11.8674 19.0002 11.7402 19.0529 11.6464 19.1467C11.5527 19.2404 11.5 19.3676 11.5 19.5002V22.0067C10.8726 22.0244 10.2632 22.2202 9.743 22.5712C9.66 22.6212 9.58 22.6677 9.5 22.7122V21.0002C9.5 20.8676 9.44732 20.7404 9.35355 20.6467C9.25978 20.5529 9.1326 20.5002 9 20.5002C8.86739 20.5002 8.74021 20.5529 8.64644 20.6467C8.55267 20.7404 8.5 20.8676 8.5 21.0002V22.9942C8.445 22.9972 8.3905 23.0002 8.33 23.0002C7.82696 23.0136 7.33314 22.8636 6.9225 22.5727C6.58262 22.3524 6.20829 22.1905 5.815 22.0937C5.71207 21.7195 5.6344 21.3388 5.5825 20.9542C5.115 17.3377 6.6975 14.8642 8.887 11.4402C10.9584 8.37728 12.6809 5.09238 14.0225 1.64673C14.0978 1.45149 14.2318 1.28444 14.4061 1.16863C14.5804 1.05283 14.7863 0.993988 14.9955 1.00023C15.2072 0.993918 15.4157 1.05349 15.5922 1.17073C15.7686 1.28796 15.9043 1.45708 15.9805 1.65473C17.3219 5.09762 19.0436 8.37995 21.1135 11.4407C23.0055 14.4002 24.5 16.7362 24.5 19.7047C24.4995 20.5138 24.3921 21.3193 24.1805 22.1002Z" fill="#FFBB38"/>
<path d="M20 13H18.5C18.3674 13 18.2402 13.0527 18.1464 13.1464C18.0527 13.2402 18 13.3674 18 13.5C18 13.6326 18.0527 13.7598 18.1464 13.8536C18.2402 13.9473 18.3674 14 18.5 14H18.793L17 15.793L16.207 15C16.0195 14.8125 15.7651 14.7072 15.5 14.7072C15.2348 14.7072 14.9805 14.8125 14.793 15L13 16.793L12.207 16C12.0195 15.8125 11.7651 15.7072 11.5 15.7072C11.2348 15.7072 10.9805 15.8125 10.793 16L8.14648 18.6465C8.09872 18.6926 8.06063 18.7478 8.03443 18.8088C8.00822 18.8698 7.99443 18.9354 7.99385 19.0018C7.99328 19.0682 8.00593 19.134 8.03107 19.1955C8.05621 19.2569 8.09334 19.3128 8.14028 19.3597C8.18723 19.4066 8.24306 19.4438 8.3045 19.4689C8.36595 19.4941 8.43179 19.5067 8.49818 19.5061C8.56457 19.5055 8.63018 19.4918 8.69118 19.4656C8.75218 19.4393 8.80736 19.4013 8.85348 19.3535L11.5 16.707L12.293 17.5C12.4805 17.6875 12.7348 17.7928 13 17.7928C13.2651 17.7928 13.5195 17.6875 13.707 17.5L15.5 15.707L16.293 16.5C16.4805 16.6875 16.7348 16.7928 17 16.7928C17.2651 16.7928 17.5195 16.6875 17.707 16.5L19.5 14.707V15C19.5 15.1326 19.5527 15.2598 19.6464 15.3536C19.7402 15.4473 19.8674 15.5 20 15.5C20.1326 15.5 20.2598 15.4473 20.3535 15.3536C20.4473 15.2598 20.5 15.1326 20.5 15V13.5C20.5 13.3674 20.4473 13.2402 20.3535 13.1464C20.2598 13.0527 20.1326 13 20 13Z" fill="#FFBB38"/>
</g>
<defs>
<clipPath id="clip0_119_1026">
<rect width="30" height="30" fill="white"/>
</clipPath>
</defs>
</svg>
