<svg width="30" height="30" viewBox="0 0 30 30" fill="none" xmlns="http://www.w3.org/2000/svg">
<g clip-path="url(#clip0_119_1022)">
<path d="M29.0625 28.4473H1.52344V0.966797C1.52344 0.643184 1.26111 0.380859 0.9375 0.380859C0.613887 0.380859 0.351562 0.643184 0.351562 0.966797V29.0332C0.351562 29.3568 0.613887 29.6191 0.9375 29.6191H29.0625C29.3861 29.6191 29.6484 29.3568 29.6484 29.0332C29.6484 28.7096 29.3861 28.4473 29.0625 28.4473Z" fill="#396AFF"/>
<path d="M5.625 27.2753C7.24043 27.2753 8.55469 25.9611 8.55469 24.3456C8.55469 23.4858 8.18227 22.7113 7.59035 22.1749L10.5272 17.2116C11.9109 17.6914 13.4442 17.0723 14.106 15.7488L17.3493 16.6137C17.2496 18.309 18.6029 19.7167 20.2734 19.7167C21.8889 19.7167 23.2031 18.4025 23.2031 16.7871C23.2031 16.0307 22.915 15.3403 22.4426 14.8199L25.4943 10.6586C25.878 10.8361 26.2959 10.928 26.7188 10.9277C28.3342 10.9277 29.6484 9.61348 29.6484 7.99805C29.6484 6.38262 28.3342 5.06836 26.7188 5.06836C25.1033 5.06836 23.7891 6.38262 23.7891 7.99805C23.7891 8.75449 24.0772 9.44484 24.5496 9.96516L21.4979 14.1265C20.0664 13.4652 18.3621 14.0609 17.6517 15.4816L14.4084 14.6167C14.5079 12.9108 13.1452 11.5136 11.4843 11.5136C9.86889 11.5136 8.55463 12.8279 8.55463 14.4433C8.55463 15.3032 8.92705 16.0777 9.51896 16.6141L6.58213 21.5774C6.27435 21.4704 5.95082 21.4159 5.625 21.416C4.00957 21.416 2.69531 22.7302 2.69531 24.3456C2.69531 25.9611 4.00957 27.2753 5.625 27.2753ZM26.7188 6.24018C27.688 6.24018 28.4766 7.02873 28.4766 7.99799C28.4766 8.96725 27.688 9.7558 26.7188 9.7558C25.7495 9.7558 24.9609 8.96725 24.9609 7.99799C24.9609 7.02873 25.7495 6.24018 26.7188 6.24018ZM20.2734 15.0292C21.2427 15.0292 22.0312 15.8178 22.0312 16.7871C22.0312 17.7563 21.2427 18.5449 20.2734 18.5449C19.3042 18.5449 18.5156 17.7563 18.5156 16.7871C18.5156 15.8178 19.3042 15.0292 20.2734 15.0292ZM11.4844 12.6855C12.4536 12.6855 13.2422 13.474 13.2422 14.4433C13.2422 15.4126 12.4536 16.2011 11.4844 16.2011C10.5151 16.2011 9.72656 15.4126 9.72656 14.4433C9.72656 13.474 10.5151 12.6855 11.4844 12.6855ZM5.625 22.5878C6.59426 22.5878 7.38281 23.3764 7.38281 24.3456C7.38281 25.3149 6.59426 26.1035 5.625 26.1035C4.65574 26.1035 3.86719 25.3149 3.86719 24.3456C3.86719 23.3764 4.65574 22.5878 5.625 22.5878Z" fill="#396AFF"/>
</g>
<defs>
<clipPath id="clip0_119_1022">
<rect width="30" height="30" fill="white"/>
</clipPath>
</defs>
</svg>
