<svg width="30" height="30" viewBox="0 0 30 30" fill="none" xmlns="http://www.w3.org/2000/svg">
<g clip-path="url(#clip0_119_1011)">
<path d="M2.18278 21.09H3.07636C3.65473 21.0891 4.20914 20.8589 4.61811 20.45C5.02708 20.041 5.25725 19.4866 5.25818 18.9082V15.6904C5.25725 15.112 5.02708 14.5576 4.61811 14.1486C4.20914 13.7396 3.65473 13.5095 3.07636 13.5085H2.18278C1.60441 13.5095 1.05 13.7396 0.641033 14.1486C0.232065 14.5576 0.00189598 15.112 0.00096265 15.6904V18.906C0.00130179 19.4847 0.231208 20.0397 0.640241 20.4492C1.04927 20.8586 1.60402 21.0891 2.18278 21.09ZM1.12396 15.6916C1.12447 15.411 1.23618 15.142 1.43464 14.9435C1.6331 14.745 1.90212 14.6333 2.18278 14.6328H3.07636C3.357 14.6334 3.62597 14.7452 3.82441 14.9436C4.02285 15.142 4.13459 15.411 4.13519 15.6916V18.906C4.13468 19.1866 4.02296 19.4557 3.8245 19.6541C3.62605 19.8526 3.35702 19.9643 3.07636 19.9648H2.18278C1.90212 19.9643 1.6331 19.8526 1.43464 19.6541C1.23618 19.4557 1.12447 19.1866 1.12396 18.906V15.6916ZM10.4297 21.09H11.3233C11.9017 21.0891 12.4561 20.8589 12.8651 20.45C13.274 20.041 13.5042 19.4866 13.5051 18.9082V11.644C13.5042 11.0657 13.274 10.5113 12.8651 10.1023C12.4561 9.69333 11.9017 9.46316 11.3233 9.46223H10.4297C9.85137 9.46316 9.29695 9.69333 8.88798 10.1023C8.47902 10.5113 8.24885 11.0657 8.24791 11.644V18.906C8.24825 19.4847 8.47816 20.0397 8.88719 20.4492C9.29623 20.8586 9.85098 21.0891 10.4297 21.09ZM9.37091 11.6453C9.37142 11.3647 9.48314 11.0956 9.68159 10.8972C9.88005 10.6987 10.1491 10.587 10.4297 10.5865H11.3233C11.604 10.587 11.873 10.6987 12.0715 10.8972C12.2699 11.0956 12.3816 11.3647 12.3821 11.6453V18.906C12.3816 19.1866 12.2699 19.4557 12.0715 19.6541C11.873 19.8526 11.604 19.9643 11.3233 19.9648H10.4297C10.1491 19.9643 9.88005 19.8526 9.68159 19.6541C9.48314 19.4557 9.37142 19.1866 9.37091 18.906V11.6453ZM18.6767 21.09H19.5703C20.1486 21.0891 20.703 20.8589 21.112 20.45C21.521 20.041 21.7512 19.4866 21.7521 18.9082V7.951C21.7512 7.37263 21.521 6.81822 21.112 6.40925C20.703 6.00028 20.1486 5.77011 19.5703 5.76918H18.6767C18.0983 5.77011 17.5439 6.00028 17.1349 6.40925C16.726 6.81822 16.4958 7.37263 16.4949 7.951V18.906C16.4952 19.4847 16.7251 20.0397 17.1341 20.4492C17.5432 20.8586 18.0979 21.0891 18.6767 21.09ZM17.6179 7.95228C17.6185 7.67165 17.7302 7.40267 17.9286 7.20424C18.1271 7.0058 18.396 6.89405 18.6767 6.89346H19.5703C19.8509 6.89405 20.1199 7.0058 20.3183 7.20424C20.5168 7.40267 20.6285 7.67165 20.6291 7.95228V18.906C20.6286 19.1866 20.5169 19.4557 20.3184 19.6541C20.1199 19.8526 19.8509 19.9643 19.5703 19.9648H18.6767C18.396 19.9643 18.127 19.8526 17.9285 19.6541C17.7301 19.4557 17.6184 19.1866 17.6179 18.906V7.95228ZM27.8172 1.50244H26.9236C26.3453 1.50337 25.7909 1.73354 25.3819 2.14251C24.9729 2.55148 24.7428 3.10589 24.7418 3.68426V18.906C24.7428 19.4843 24.9729 20.0387 25.3819 20.4477C25.7909 20.8567 26.3453 21.0869 26.9236 21.0878H27.8172C28.3956 21.0869 28.95 20.8567 29.359 20.4477C29.7679 20.0387 29.9981 19.4843 29.999 18.906V3.68522C29.9984 3.10669 29.7683 2.55203 29.3593 2.14285C28.9503 1.73368 28.3958 1.50338 27.8172 1.50244ZM28.876 18.906C28.8755 19.1866 28.7638 19.4557 28.5654 19.6541C28.3669 19.8526 28.0979 19.9643 27.8172 19.9648H26.9236C26.643 19.9643 26.374 19.8526 26.1755 19.6541C25.977 19.4557 25.8653 19.1866 25.8648 18.906V3.68522C25.8654 3.40459 25.9772 3.13562 26.1756 2.93718C26.374 2.73874 26.643 2.62699 26.9236 2.6264H27.8172C28.0979 2.62691 28.3669 2.73863 28.5654 2.93708C28.7638 3.13554 28.8755 3.40456 28.876 3.68522V18.906ZM29.4385 25.3414H13.4442C13.3163 24.7555 12.9919 24.231 12.5248 23.855C12.0578 23.4789 11.4762 23.2738 10.8765 23.2738C10.2769 23.2738 9.69527 23.4789 9.22822 23.855C8.76118 24.231 8.43678 24.7555 8.30888 25.3414H0.561497C0.412579 25.3414 0.26976 25.4005 0.164459 25.5058C0.0591578 25.6111 0 25.754 0 25.9029C0 26.0518 0.0591578 26.1946 0.164459 26.2999C0.26976 26.4052 0.412579 26.4644 0.561497 26.4644H8.30888C8.43678 27.0502 8.76118 27.5747 9.22822 27.9508C9.69527 28.3269 10.2769 28.5319 10.8765 28.5319C11.4762 28.5319 12.0578 28.3269 12.5248 27.9508C12.9919 27.5747 13.3163 27.0502 13.4442 26.4644H29.4385C29.5874 26.4644 29.7302 26.4052 29.8355 26.2999C29.9408 26.1946 30 26.0518 30 25.9029C30 25.754 29.9408 25.6111 29.8355 25.5058C29.7302 25.4005 29.5874 25.3414 29.4385 25.3414ZM10.8764 27.4109C10.5781 27.4111 10.2864 27.3229 10.0382 27.1574C9.79004 26.9918 9.59655 26.7564 9.48222 26.4809C9.36788 26.2053 9.33784 25.9021 9.39588 25.6095C9.45392 25.3168 9.59744 25.048 9.80829 24.837C10.0191 24.626 10.2878 24.4822 10.5804 24.4239C10.873 24.3656 11.1762 24.3954 11.4519 24.5095C11.7275 24.6236 11.9631 24.8169 12.1289 25.0649C12.2946 25.3129 12.3831 25.6046 12.3831 25.9029C12.3831 26.3026 12.2244 26.686 11.9419 26.9687C11.6593 27.2515 11.2761 27.4105 10.8764 27.4109Z" fill="#FFBB38"/>
</g>
<defs>
<clipPath id="clip0_119_1011">
<rect width="30" height="30" fill="white"/>
</clipPath>
</defs>
</svg>
