<svg width="22" height="22" viewBox="0 0 22 22" fill="none" xmlns="http://www.w3.org/2000/svg">
<path d="M18.1225 12.6043H14.4192C12.5767 12.6043 11.6875 11.7518 11.6875 9.99183V3.7585C11.6875 1.9985 12.5858 1.146 14.4192 1.146H18.1225C19.965 1.146 20.8542 1.9985 20.8542 3.7585V9.99183C20.8542 11.7518 19.9558 12.6043 18.1225 12.6043ZM14.4192 2.521C13.255 2.521 13.0625 2.83266 13.0625 3.7585V9.99183C13.0625 10.9177 13.255 11.2293 14.4192 11.2293H18.1225C19.2867 11.2293 19.4792 10.9177 19.4792 9.99183V3.7585C19.4792 2.83266 19.2867 2.521 18.1225 2.521H14.4192V2.521Z" fill="#F30008"/>
<path d="M18.1225 20.854H14.4192C12.5767 20.854 11.6875 20.0015 11.6875 18.2415V16.5915C11.6875 14.8315 12.5858 13.979 14.4192 13.979H18.1225C19.965 13.979 20.8542 14.8315 20.8542 16.5915V18.2415C20.8542 20.0015 19.9558 20.854 18.1225 20.854ZM14.4192 15.354C13.255 15.354 13.0625 15.6657 13.0625 16.5915V18.2415C13.0625 19.1673 13.255 19.479 14.4192 19.479H18.1225C19.2867 19.479 19.4792 19.1673 19.4792 18.2415V16.5915C19.4792 15.6657 19.2867 15.354 18.1225 15.354H14.4192Z" fill="#F30008"/>
<path d="M7.58051 20.8543H3.87717C2.03467 20.8543 1.14551 20.0018 1.14551 18.2418V12.0085C1.14551 10.2485 2.04384 9.396 3.87717 9.396H7.58051C9.42301 9.396 10.3122 10.2485 10.3122 12.0085V18.2418C10.3122 20.0018 9.41384 20.8543 7.58051 20.8543ZM3.87717 10.771C2.71301 10.771 2.52051 11.0827 2.52051 12.0085V18.2418C2.52051 19.1677 2.71301 19.4793 3.87717 19.4793H7.58051C8.74468 19.4793 8.93717 19.1677 8.93717 18.2418V12.0085C8.93717 11.0827 8.74468 10.771 7.58051 10.771H3.87717V10.771Z" fill="#F30008"/>
<path d="M7.58051 8.021H3.87717C2.03467 8.021 1.14551 7.1685 1.14551 5.4085V3.7585C1.14551 1.9985 2.04384 1.146 3.87717 1.146H7.58051C9.42301 1.146 10.3122 1.9985 10.3122 3.7585V5.4085C10.3122 7.1685 9.41384 8.021 7.58051 8.021ZM3.87717 2.521C2.71301 2.521 2.52051 2.83266 2.52051 3.7585V5.4085C2.52051 6.33433 2.71301 6.646 3.87717 6.646H7.58051C8.74468 6.646 8.93717 6.33433 8.93717 5.4085V3.7585C8.93717 2.83266 8.74468 2.521 7.58051 2.521H3.87717V2.521Z" fill="#F30008"/>
</svg>
