<svg width="22" height="22" viewBox="0 0 22 22" fill="none" xmlns="http://www.w3.org/2000/svg">
<path d="M11 12.604C10.6242 12.604 10.3125 12.2923 10.3125 11.9165V7.104C10.3125 6.72817 10.6242 6.4165 11 6.4165C11.3758 6.4165 11.6875 6.72817 11.6875 7.104V11.9165C11.6875 12.2923 11.3758 12.604 11 12.604Z" fill="#1D1D1B"/>
<path d="M11 15.8126C10.7525 15.8126 10.5234 15.721 10.3492 15.5468C10.2667 15.4551 10.2025 15.3543 10.1475 15.2443C10.1017 15.1343 10.0834 15.0151 10.0834 14.896C10.0834 14.6576 10.1842 14.4193 10.3492 14.2451C10.6884 13.9059 11.3117 13.9059 11.6509 14.2451C11.8159 14.4193 11.9167 14.6576 11.9167 14.896C11.9167 15.0151 11.8892 15.1343 11.8434 15.2443C11.7975 15.3543 11.7334 15.4551 11.6509 15.5468C11.4767 15.721 11.2475 15.8126 11 15.8126Z" fill="#1D1D1B"/>
<path d="M11.0001 20.854C10.386 20.854 9.76262 20.6982 9.21262 20.3773L3.76761 17.2332C2.66761 16.5915 1.9801 15.409 1.9801 14.1348V7.86486C1.9801 6.59069 2.66761 5.40819 3.76761 4.76652L9.21262 1.62236C10.3126 0.980697 11.6785 0.980697 12.7876 1.62236L18.2326 4.76652C19.3326 5.40819 20.0202 6.59069 20.0202 7.86486V14.1348C20.0202 15.409 19.3326 16.5915 18.2326 17.2332L12.7876 20.3773C12.2376 20.6982 11.6143 20.854 11.0001 20.854ZM11.0001 2.52068C10.6243 2.52068 10.2393 2.62152 9.90012 2.81402L4.45511 5.95818C3.77678 6.35235 3.3551 7.07653 3.3551 7.86486V14.1348C3.3551 14.914 3.77678 15.6473 4.45511 16.0415L9.90012 19.1857C10.5784 19.5798 11.4218 19.5798 12.091 19.1857L17.536 16.0415C18.2143 15.6473 18.636 14.9232 18.636 14.1348V7.86486C18.636 7.08569 18.2143 6.35235 17.536 5.95818L12.091 2.81402C11.761 2.62152 11.376 2.52068 11.0001 2.52068Z" fill="#1D1D1B"/>
</svg>
