<svg width="22" height="22" viewBox="0 0 22 22" fill="none" xmlns="http://www.w3.org/2000/svg">
<path d="M16.8368 8.25C16.8368 6.70014 16.2212 5.21376 15.1252 4.11784C14.0293 3.02193 12.5429 2.40625 10.9931 2.40625C9.44323 2.40625 7.95685 3.02193 6.86093 4.11784C5.76502 5.21376 5.14934 6.70014 5.14934 8.25C4.05532 8.24179 3.00285 8.66852 2.22346 9.43631C1.44407 10.2041 1.00161 11.25 0.993402 12.3441C0.985197 13.4381 1.41193 14.4906 2.17971 15.2699C2.9475 16.0493 3.99345 16.4918 5.08746 16.5C5.17782 16.5085 5.26896 16.499 5.35564 16.4721C5.44231 16.4452 5.5228 16.4014 5.59247 16.3433C5.66213 16.2851 5.71959 16.2137 5.76153 16.1333C5.80348 16.0528 5.82907 15.9648 5.83684 15.8744C5.85415 15.694 5.79959 15.5142 5.68502 15.3738C5.57044 15.2335 5.40511 15.1441 5.22496 15.125C4.82853 15.0869 4.44509 14.9632 4.10116 14.7624C3.75724 14.5616 3.46104 14.2884 3.23305 13.9619C3.00505 13.6353 2.85071 13.2632 2.78069 12.8711C2.71066 12.479 2.72663 12.0764 2.82749 11.6912C2.92835 11.3059 3.11169 10.9471 3.36484 10.6396C3.61798 10.3322 3.93488 10.0834 4.29363 9.91043C4.65239 9.73748 5.04442 9.64451 5.44263 9.63797C5.84084 9.63142 6.23572 9.71144 6.59997 9.8725C6.68589 9.91333 6.77984 9.93446 6.87496 9.93437C7.03112 9.93213 7.18185 9.87679 7.30236 9.77745C7.42287 9.67812 7.50597 9.54072 7.53798 9.38787C7.56999 9.23501 7.54901 9.07582 7.47848 8.93648C7.40796 8.79714 7.2921 8.68596 7.14996 8.62125C6.95482 8.53289 6.7524 8.46158 6.54497 8.40812C6.54497 7.22294 7.01578 6.08629 7.85383 5.24824C8.69188 4.41019 9.82853 3.93938 11.0137 3.93938C12.1989 3.93938 13.3355 4.41019 14.1736 5.24824C15.0117 6.08629 15.4825 7.22294 15.4825 8.40812C15.275 8.46158 15.0726 8.53289 14.8775 8.62125C14.7353 8.68596 14.6195 8.79714 14.5489 8.93648C14.4784 9.07582 14.4574 9.23501 14.4894 9.38787C14.5215 9.54072 14.6046 9.67812 14.7251 9.77745C14.8456 9.87679 14.9963 9.93213 15.1525 9.93437C15.2476 9.93446 15.3415 9.91333 15.4275 9.8725C15.7917 9.71144 16.1866 9.63142 16.5848 9.63797C16.983 9.64451 17.375 9.73748 17.7338 9.91043C18.0925 10.0834 18.4094 10.3322 18.6626 10.6396C18.9157 10.9471 19.0991 11.3059 19.1999 11.6912C19.3008 12.0764 19.3168 12.479 19.2467 12.8711C19.1767 13.2632 19.0224 13.6353 18.7944 13.9619C18.5664 14.2884 18.2702 14.5616 17.9263 14.7624C17.5823 14.9632 17.1989 15.0869 16.8025 15.125C16.712 15.1328 16.6241 15.1584 16.5436 15.2003C16.4631 15.2422 16.3917 15.2997 16.3336 15.3694C16.2754 15.439 16.2316 15.5195 16.2047 15.6062C16.1778 15.6929 16.1683 15.784 16.1768 15.8744C16.1923 16.0458 16.2715 16.2051 16.3988 16.321C16.5261 16.4368 16.6922 16.5007 16.8643 16.5H16.9262C18.0202 16.4881 19.0647 16.0422 19.8299 15.2602C20.5951 14.4782 21.0184 13.4243 21.0065 12.3303C20.9947 11.2363 20.5487 10.1918 19.7667 9.42659C18.9848 8.66138 17.9309 8.23815 16.8368 8.25Z" fill="#1D1D1B"/>
<path d="M14.3619 16.1356C14.9604 15.2924 15.2203 14.2551 15.0903 13.2292C14.9602 12.2034 14.4496 11.2638 13.6596 10.5966C12.8696 9.9294 11.8578 9.58324 10.8247 9.62669C9.79156 9.67015 8.81242 10.1 8.08123 10.8312C7.35005 11.5624 6.92015 12.5416 6.87669 13.5747C6.83324 14.6078 7.1794 15.6196 7.84661 16.4096C8.51382 17.1996 9.4534 17.7102 10.4792 17.8403C11.5051 17.9703 12.5424 17.7104 13.3856 17.1119L15.3244 19.0506C15.4538 19.1801 15.6294 19.2528 15.8125 19.2528C15.9956 19.2528 16.1711 19.1801 16.3006 19.0506C16.4301 18.9211 16.5028 18.7456 16.5028 18.5625C16.5028 18.3794 16.4301 18.2038 16.3006 18.0744L14.3619 16.1356ZM11 16.5C10.4561 16.5 9.9244 16.3387 9.47216 16.0365C9.01993 15.7343 8.66745 15.3049 8.45931 14.8024C8.25117 14.2999 8.19671 13.7469 8.30282 13.2135C8.40893 12.68 8.67084 12.19 9.05544 11.8054C9.44003 11.4208 9.93004 11.1589 10.4635 11.0528C10.9969 10.9467 11.5499 11.0012 12.0524 11.2093C12.5549 11.4175 12.9843 11.7699 13.2865 12.2222C13.5887 12.6744 13.75 13.2061 13.75 13.75C13.75 14.4793 13.4602 15.1788 12.9445 15.6945C12.4288 16.2102 11.7293 16.5 11 16.5Z" fill="#1D1D1B"/>
</svg>
