<svg width="22" height="22" viewBox="0 0 22 22" fill="none" xmlns="http://www.w3.org/2000/svg">
<path d="M11 20.8543C10.285 20.8543 9.58837 20.4877 9.11171 19.846L8.18587 18.6085C7.99337 18.3518 7.73671 18.2052 7.46171 18.1868C7.18671 18.1777 6.91171 18.2968 6.69171 18.526L6.16921 18.0585L6.67337 18.526C5.35337 19.9377 4.33587 19.8277 3.85004 19.6352C3.35504 19.4427 2.52087 18.8102 2.52087 16.7752V6.4535C2.52087 2.3835 3.69421 1.146 7.53504 1.146H14.465C18.3059 1.146 19.4792 2.3835 19.4792 6.4535V16.7752C19.4792 18.801 18.645 19.4335 18.15 19.6352C17.6642 19.8277 16.6559 19.9377 15.3267 18.526C15.1067 18.2877 14.8409 18.1593 14.5475 18.1868C14.2725 18.2052 14.0067 18.3518 13.8142 18.6085L12.8884 19.846C12.4117 20.4877 11.715 20.8543 11 20.8543ZM7.40671 16.8027C7.44337 16.8027 7.48921 16.8027 7.52587 16.8027C8.20421 16.8393 8.84587 17.1968 9.27671 17.7743L10.2025 19.0118C10.6517 19.6077 11.3392 19.6077 11.7884 19.0118L12.7142 17.7743C13.1542 17.1968 13.7867 16.8393 14.4742 16.8027C15.1525 16.766 15.8309 17.0502 16.3259 17.5818C17.0225 18.3243 17.4809 18.416 17.6367 18.3518C17.8567 18.2602 18.095 17.7285 18.095 16.7752V6.4535C18.095 3.14433 17.5175 2.521 14.4559 2.521H7.53504C4.47337 2.521 3.89587 3.14433 3.89587 6.4535V16.7752C3.89587 17.7377 4.13421 18.2693 4.35421 18.3518C4.51004 18.416 4.96837 18.3243 5.66504 17.5818C6.16004 17.0777 6.77421 16.8027 7.40671 16.8027Z" fill="#1D1D1B"/>
<path d="M14.6667 7.104H7.33337C6.95754 7.104 6.64587 6.79234 6.64587 6.4165C6.64587 6.04067 6.95754 5.729 7.33337 5.729H14.6667C15.0425 5.729 15.3542 6.04067 15.3542 6.4165C15.3542 6.79234 15.0425 7.104 14.6667 7.104Z" fill="#1D1D1B"/>
<path d="M13.75 10.771H8.25C7.87417 10.771 7.5625 10.4593 7.5625 10.0835C7.5625 9.70766 7.87417 9.396 8.25 9.396H13.75C14.1258 9.396 14.4375 9.70766 14.4375 10.0835C14.4375 10.4593 14.1258 10.771 13.75 10.771Z" fill="#1D1D1B"/>
</svg>
